<?xml version="1.0" encoding="UTF-8" standalone="no"?>
<svg
   xmlns:dc="http://purl.org/dc/elements/1.1/"
   xmlns:cc="http://creativecommons.org/ns#"
   xmlns:rdf="http://www.w3.org/1999/02/22-rdf-syntax-ns#"
   xmlns:svg="http://www.w3.org/2000/svg"
   xmlns="http://www.w3.org/2000/svg"
   xmlns:sodipodi="http://sodipodi.sourceforge.net/DTD/sodipodi-0.dtd"
   xmlns:inkscape="http://www.inkscape.org/namespaces/inkscape"
   width="64"
   height="64"
   viewBox="0 0 16.933333 16.933334"
   version="1.1"
   id="svg8"
   sodipodi:docname="icon.svg"
   inkscape:version="1.0.2 (e86c870879, 2021-01-15, custom)"
   inkscape:export-filename="D:\Downloads\logo512.png"
   inkscape:export-xdpi="768"
   inkscape:export-ydpi="768">
  <defs
     id="defs2" />
  <sodipodi:namedview
     id="base"
     pagecolor="#ffffff"
     bordercolor="#666666"
     borderopacity="1.0"
     inkscape:pageopacity="0.0"
     inkscape:pageshadow="2"
     inkscape:zoom="9.1971566"
     inkscape:cx="0.46777981"
     inkscape:cy="32.754317"
     inkscape:document-units="px"
     inkscape:current-layer="layer2"
     inkscape:document-rotation="0"
     showgrid="false"
     inkscape:window-width="1920"
     inkscape:window-height="1017"
     inkscape:window-x="-8"
     inkscape:window-y="-8"
     inkscape:window-maximized="1"
     units="px" />
  <metadata
     id="metadata5">
    <rdf:RDF>
      <cc:Work
         rdf:about="">
        <dc:format>image/svg+xml</dc:format>
        <dc:type
           rdf:resource="http://purl.org/dc/dcmitype/StillImage" />
        <dc:title />
      </cc:Work>
    </rdf:RDF>
  </metadata>
  <g
     inkscape:groupmode="layer"
     id="layer2"
     inkscape:label="Layer 2"
     style="display:inline">
    <path
       id="rect960-2"
       style="display:inline;fill:#a1b3bf;fill-opacity:1;stroke:none;stroke-width:0.0782332;stroke-linecap:round;stroke-linejoin:round;stroke-miterlimit:4;stroke-dasharray:none"
       d="m 2.123229,0.02645833 h 12.713333 c 1.161611,0 2.096771,0.93515985 2.096771,2.09677387 V 14.83656 c 0,1.161614 -0.93516,2.096773 -2.096771,2.096773 H 2.123229 c -1.16161048,0 -2.09677067,-0.935159 -2.09677067,-2.096773 V 2.1232322 c 0,-1.16161402 0.93516019,-2.09677387 2.09677067,-2.09677387 z" />
    <path
       id="rect960"
       style="fill:#ffffff;fill-opacity:1;stroke:none;stroke-width:0.0788209;stroke-linecap:round;stroke-linejoin:round;stroke-miterlimit:4;stroke-dasharray:none"
       d="M 2.0997842,-1.6970014e-7 C 0.93635697,-1.6970014e-7 1.5642414e-5,0.93695487 1.5642414e-5,2.1003581 V 6.3473426 C 0.14320873,5.8397707 0.41044254,5.4240215 0.86319021,5.2193991 1.0633168,5.1289567 1.2825646,5.0824519 1.5091243,5.0760755 2.4908908,5.0484403 3.6009591,5.7688408 3.8004239,6.8756462 3.9767515,7.8537506 3.664595,8.9205973 3.980387,9.8577923 4.242616,10.486165 4.3575936,10.782095 4.189915,11.541677 L 2.0445099,12.217162 C 1.038988,11.819783 0.37325968,10.354292 0.12534613,9.3339909 H 0.12468819 C 0.0793041,9.1676002 0.03688011,8.9870262 -5.2621299e-7,8.7973333 v 6.0356317 c 0,1.163403 0.93634132621299,2.100358 2.09976852621299,2.100358 h 6.3378703 c -0.00236,-0.002 -0.00473,-0.0032 -0.00709,-0.0051 C 7.4329285,16.126121 8.2953904,14.661832 9.1960426,14.2449 l 1.6723594,1.841991 c -0.211268,0.294963 -0.486797,0.617121 -0.804686,0.846442 h 4.76963 c 1.163429,0 2.099769,-0.936955 2.099769,-2.100358 V 4.907696 C 15.883541,5.29483 14.753612,5.5339317 13.096072,4.8729966 12.648598,4.6945617 12.302469,4.324331 12.160912,3.9539298 l 0.09512,-1.9358244 C 12.61444,1.820081 13.043216,1.67993 13.538259,1.6967511 c 0.297025,0.010074 0.61776,0.076538 0.961509,0.2210928 0.962999,0.4049787 1.813723,1.0366382 2.433343,1.9191126 V 2.1003718 c 0,-1.16340325 -0.93634,-2.100359532618 -2.099769,-2.100359532618 H 4.8236107 A 0.70861623,0.53766289 25.894553 0 1 5.1102618,0.72626821 0.70861623,0.53766289 25.894553 0 1 4.23809,0.90044208 0.70861623,0.53766289 25.894553 0 1 3.8357462,0.10734429 0.70861623,0.53766289 25.894553 0 1 3.9115895,1.2267382e-5 Z M 9.2738361,1.2050697 A 0.72107086,0.5284046 0 0 1 9.9949668,1.7333721 0.72107086,0.5284046 0 0 1 9.2738361,2.2616757 0.72107086,0.5284046 0 0 1 8.5527017,1.7333721 0.72107086,0.5284046 0 0 1 9.2738361,1.2050697 Z M 7.0243125,2.7539852 C 7.3983339,2.8094546 7.6752228,3.0049792 7.9761819,3.3337049 8.1294617,3.5011205 9.1506436,5.7663671 8.6105468,7.5575565 7.2235858,7.2736565 6.1627934,6.4679127 5.2831803,5.4527026 4.6797497,4.7562509 4.7306274,4.08954 4.9206871,3.5110913 Z m 8.0237245,4.583124 c 0.236854,0.011815 0.470252,0.079821 0.687068,0.2249458 0.867272,0.5804896 0.495725,1.6902131 0.431909,2.512332 -0.06859,0.883541 -0.486285,1.820887 -1.220526,2.37929 -0.739834,0.635397 -2.178022,1.663552 -2.95009,2.257174 -0.640731,-0.281451 -1.045273,-0.846521 -1.4699,-1.3741 0.234505,-1.044181 1.155895,-1.698512 1.446764,-2.700642 0.262115,-0.9030681 0.637213,-1.7607156 1.245593,-2.4377779 0.381382,-0.4244577 1.118622,-0.8965594 1.829182,-0.8612219 z M 5.0607995,12.790451 c 0.6733039,0.545093 0.8702004,1.732866 0.03021,2.368366 -1.4802166,0.791867 -2.3146209,-0.515262 -2.667291,-1.52835 z" />
  </g>
</svg>
