<?xml version="1.0" encoding="UTF-8" standalone="no"?>
<svg
   xmlns:dc="http://purl.org/dc/elements/1.1/"
   xmlns:cc="http://creativecommons.org/ns#"
   xmlns:rdf="http://www.w3.org/1999/02/22-rdf-syntax-ns#"
   xmlns:svg="http://www.w3.org/2000/svg"
   xmlns="http://www.w3.org/2000/svg"
   xmlns:sodipodi="http://sodipodi.sourceforge.net/DTD/sodipodi-0.dtd"
   xmlns:inkscape="http://www.inkscape.org/namespaces/inkscape"
   width="192"
   height="192"
   viewBox="0 0 50.799999 50.800001"
   version="1.1"
   id="svg8"
   inkscape:version="1.0.2 (e86c870879, 2021-01-15, custom)"
   sodipodi:docname="image-placeholder-2.svg">
  <defs
     id="defs2" />
  <sodipodi:namedview
     id="base"
     pagecolor="#ffffff"
     bordercolor="#666666"
     borderopacity="1.0"
     inkscape:pageopacity="0.0"
     inkscape:pageshadow="2"
     inkscape:zoom="3.0174029"
     inkscape:cx="-5.3930561"
     inkscape:cy="125.03107"
     inkscape:document-units="mm"
     inkscape:current-layer="layer1"
     inkscape:document-rotation="0"
     showgrid="false"
     inkscape:snap-global="true"
     units="px"
     inkscape:window-width="1920"
     inkscape:window-height="1017"
     inkscape:window-x="-8"
     inkscape:window-y="-8"
     inkscape:window-maximized="1" />
  <metadata
     id="metadata5">
    <rdf:RDF>
      <cc:Work
         rdf:about="">
        <dc:format>image/svg+xml</dc:format>
        <dc:type
           rdf:resource="http://purl.org/dc/dcmitype/StillImage" />
        <dc:title></dc:title>
      </cc:Work>
    </rdf:RDF>
  </metadata>
  <g
     inkscape:label="Layer 1"
     inkscape:groupmode="layer"
     id="layer1">
    <path
       id="path833"
       style="fill:none;stroke:#000000;stroke-width:0.264583px;stroke-linecap:butt;stroke-linejoin:miter;stroke-opacity:1"
       d="m -507.63284,11.729366 -11.57449,4.559927 -21.04419,3.156397 -14.38052,-2.455148 -3.50779,6.31331 12.62713,2.806031 h 15.43265 l 14.38052,-4.910296 3.85816,-0.350883 -4.55993,12.276254 -4.55941,5.611545 -18.23868,-2.80603 -14.7314,5.962943 -18.23868,21.745959 -4.20905,5.962425 -15.08176,0.350885 -3.85816,-9.119341 -2.10427,-5.261179 -12.9775,7.365961 2.45515,6.31331 -12.97751,0.350364 0.35089,4.209047 h 46.29795 l 9.11934,-12.62662 11.57448,-12.276254 17.18655,-7.014557 10.17147,1.052132 -3.15691,19.641695 -0.94465,11.574486 h 3.91191 l 4.39818,-20.342944 9.11934,-22.096841 4.55993,-10.171991 z" />
    <path
       style="fill:none;stroke:#000000;stroke-width:0.264583px;stroke-linecap:butt;stroke-linejoin:miter;stroke-opacity:1"
       d="m -588.55158,181.59545 h 3.85818 l 0.94949,-21.15097 2.36752,-4.73503 4.82272,-0.52612 4.12123,3.7705 5.92373,15.96246 7.10255,6.75179 20.73274,-0.004 15.65578,-0.76533 1.48443,-1.79262 -0.22308,-2.84484 -14.67771,-8.14853 -8.65446,2.00795 -12.91473,-3.44983 -5.36364,-10.84018 -7.58558,-9.0814 -7.63005,-7.24401 -7.42214,-3.45758 -4.22289,-3.93233 -2.63574,3.93963 -2.51172,7.03249 0.94584,12.77568 4.02108,13.70026 z"
       id="path838"
       sodipodi:nodetypes="ccccccccccccccccccccccccc" />
    <path
       id="path875"
       style="color:#000000;font-style:normal;font-variant:normal;font-weight:normal;font-stretch:normal;font-size:medium;line-height:normal;font-family:sans-serif;font-variant-ligatures:normal;font-variant-position:normal;font-variant-caps:normal;font-variant-numeric:normal;font-variant-alternates:normal;font-variant-east-asian:normal;font-feature-settings:normal;font-variation-settings:normal;text-indent:0;text-align:start;text-decoration:none;text-decoration-line:none;text-decoration-style:solid;text-decoration-color:#000000;letter-spacing:normal;word-spacing:normal;text-transform:none;writing-mode:lr-tb;direction:ltr;text-orientation:mixed;dominant-baseline:auto;baseline-shift:baseline;text-anchor:start;white-space:normal;shape-padding:0;shape-margin:0;inline-size:0;clip-rule:nonzero;display:inline;overflow:visible;visibility:visible;isolation:auto;mix-blend-mode:normal;color-interpolation:sRGB;color-interpolation-filters:linearRGB;solid-color:#000000;solid-opacity:1;vector-effect:none;fill:#4d4d4d;fill-opacity:1;fill-rule:nonzero;stroke:none;stroke-width:0.79375;stroke-linecap:butt;stroke-linejoin:miter;stroke-miterlimit:4;stroke-dasharray:none;stroke-dashoffset:0;stroke-opacity:1;color-rendering:auto;image-rendering:auto;shape-rendering:auto;text-rendering:auto;enable-background:accumulate;stop-color:#000000"
       d="m 30.923291,16.637187 -0.358119,0.12454 c -3.116834,1.082766 -4.858189,3.600584 -7.367508,5.681824 -1.478706,1.12108 -2.98641,1.95901 -5.306652,2.590023 -1.123408,0.305521 -3.540877,0.218101 -5.863725,0.127641 -1.161426,-0.04523 -2.3088873,-0.0853 -3.3000587,-0.05891 -0.9911662,0.02639 -1.8154015,0.101878 -2.4101875,0.36897 -0.6744917,0.302885 -1.2300902,0.698338 -1.5384092,1.300696 -0.2874274,0.561547 -0.3240034,1.261702 -0.1462431,2.115633 -0.2228374,0.277169 -0.4181078,0.634797 -0.4960938,1.080554 -0.047749,0.272914 -0.047196,0.573126 0.071313,0.861446 0.1185016,0.288322 0.3673607,0.544294 0.7095172,0.688847 l 0.017052,0.0072 0.017055,0.0057 c 4.504928,1.431269 6.4727351,1.759792 11.0949291,2.393651 l 0.01602,0.0021 0.01654,0.001 c 3.673806,0.198244 8.604626,-0.524566 12.0928,-1.415399 l 4.793504,-0.904338 0.0088,2.455667 0.396875,-10e-4 c 5.221883,-0.01186 8.102253,0.03077 12.634886,0.09508 l 0.333314,0.0047 0.06201,-0.327629 c 0.176668,-0.93373 0.24833,-1.664387 0.265102,-2.288749 l 0.02739,0.0016 -0.16588,-3.321245 -0.01809,-0.369486 h -0.0047 c -0.205602,-3.411929 -0.220281,-6.176401 -2.2934,-9.211841 L 43.926079,18.2274 43.588114,18.604121 c -1.008446,1.123755 -3.113273,2.106077 -5.208466,2.500106 -2.095193,0.39403 -4.150847,0.178795 -5.103048,-0.724504 l -0.0083,-0.0078 -0.0088,-0.0078 C 32.267821,19.52806 31.607308,18.345174 31.064367,16.989104 Z m -0.433567,1.016992 c 0.539959,1.265155 1.216768,2.433552 2.249476,3.307809 1.29308,1.2186 3.562197,1.340261 5.786726,0.921907 2.01947,-0.379788 4.01795,-1.224574 5.277715,-2.3828 1.671183,2.67299 1.712624,5.123421 1.906344,8.358146 -4.039367,-0.0063 -6.966058,0.241762 -11.392587,0.59893 h -0.0026 -0.0021 c -5.967007,0.549992 -11.75921,2.430544 -17.143655,2.465482 h -0.0016 -0.0021 c -2.574901,0.04168 -4.737346,-0.363659 -7.2445198,-0.971517 l -5.16e-4,-5.16e-4 H 9.9199196 C 8.1446263,29.527832 7.0113551,29.305482 5.4127029,28.687097 5.2740692,27.982545 5.3070521,27.480933 5.4850479,27.133187 5.6816651,26.74906 6.0528782,26.459847 6.6420841,26.19526 c 0.3709035,-0.166556 1.1527181,-0.273828 2.105816,-0.299207 0.953098,-0.02538 2.0886399,0.01326 3.2478639,0.0584 2.318446,0.09029 4.692748,0.228498 6.102985,-0.155029 2.248133,-0.611402 3.819004,-1.441684 5.266862,-2.495455 l 0.829408,1.085721 0.630968,-0.482141 -0.837158,-1.095023 c 0.284022,-0.243173 0.555276,-0.487378 0.82114,-0.732255 l 0.805635,1.054716 0.63097,-0.482141 -0.853178,-1.116211 c 0.298934,-0.283896 0.591503,-0.56522 0.880049,-0.840259 l 0.815454,1.067118 0.630452,-0.482141 -0.863513,-1.129647 c 0.220403,-0.203707 0.441317,-0.404979 0.664044,-0.596863 l 0.860411,1.126547 0.630968,-0.482141 -0.877464,-1.147734 c 0.722664,-0.56421 1.485344,-1.048593 2.355927,-1.397331 z m 15.264185,10.998295 0.103354,2.068608 c -4.19535,-0.195086 -8.290973,-0.270208 -12.523269,0.01292 l -0.02325,0.0016 -5.298384,0.999422 -0.0124,0.0031 c -3.410508,0.8733 -8.330869,1.586381 -11.86801,1.397331 C 11.545057,32.506194 9.6639114,32.19434 5.2194327,30.78361 5.0471175,30.70897 4.983935,30.630013 4.9419298,30.527812 4.8991808,30.423798 4.8883488,30.2755 4.9181598,30.105099 c 0.04227,-0.241612 0.1705557,-0.479262 0.2816358,-0.65164 1.6173185,0.618443 2.8030063,0.856601 4.5356409,1.270207 2.5289755,0.613103 4.7761345,1.036564 7.4403715,0.993736 5.562831,-0.03637 11.362865,-1.929658 17.209802,-2.468582 4.443325,-0.358539 7.338862,-0.604721 11.368299,-0.596346 z m -5.922637,2.686658 c 2.003909,0.0096 4.008631,0.0755 6.040977,0.170532 -0.01692,0.512298 -0.07895,1.117132 -0.203607,1.852084 -4.183298,-0.05939 -7.118776,-0.09737 -11.903665,-0.0894 l -0.0062,-1.767335 c 2.043403,-0.127021 4.05852,-0.175485 6.072497,-0.165881 z" />
  </g>
</svg>
