<?xml version="1.0" encoding="UTF-8" standalone="no"?>
<svg
   xmlns:dc="http://purl.org/dc/elements/1.1/"
   xmlns:cc="http://creativecommons.org/ns#"
   xmlns:rdf="http://www.w3.org/1999/02/22-rdf-syntax-ns#"
   xmlns:svg="http://www.w3.org/2000/svg"
   xmlns="http://www.w3.org/2000/svg"
   xmlns:sodipodi="http://sodipodi.sourceforge.net/DTD/sodipodi-0.dtd"
   xmlns:inkscape="http://www.inkscape.org/namespaces/inkscape"
   width="192"
   height="192"
   viewBox="0 0 50.799999 50.800001"
   version="1.1"
   id="svg8"
   inkscape:version="1.0.2 (e86c870879, 2021-01-15, custom)"
   sodipodi:docname="image-placeholder-1.svg">
  <defs
     id="defs2" />
  <sodipodi:namedview
     id="base"
     pagecolor="#ffffff"
     bordercolor="#666666"
     borderopacity="1.0"
     inkscape:pageopacity="0.0"
     inkscape:pageshadow="2"
     inkscape:zoom="2.2992892"
     inkscape:cx="-53.511599"
     inkscape:cy="165.69229"
     inkscape:document-units="mm"
     inkscape:current-layer="layer1"
     inkscape:document-rotation="0"
     showgrid="false"
     inkscape:snap-global="true"
     units="px"
     inkscape:window-width="1920"
     inkscape:window-height="1017"
     inkscape:window-x="-8"
     inkscape:window-y="-8"
     inkscape:window-maximized="1" />
  <metadata
     id="metadata5">
    <rdf:RDF>
      <cc:Work
         rdf:about="">
        <dc:format>image/svg+xml</dc:format>
        <dc:type
           rdf:resource="http://purl.org/dc/dcmitype/StillImage" />
        <dc:title />
      </cc:Work>
    </rdf:RDF>
  </metadata>
  <g
     inkscape:label="Layer 1"
     inkscape:groupmode="layer"
     id="layer1">
    <path
       id="path833"
       style="fill:none;stroke:#000000;stroke-width:0.264583px;stroke-linecap:butt;stroke-linejoin:miter;stroke-opacity:1"
       d="m -507.63284,11.729366 -11.57449,4.559927 -21.04419,3.156397 -14.38052,-2.455148 -3.50779,6.31331 12.62713,2.806031 h 15.43265 l 14.38052,-4.910296 3.85816,-0.350883 -4.55993,12.276254 -4.55941,5.611545 -18.23868,-2.80603 -14.7314,5.962943 -18.23868,21.745959 -4.20905,5.962425 -15.08176,0.350885 -3.85816,-9.119341 -2.10427,-5.261179 -12.9775,7.365961 2.45515,6.31331 -12.97751,0.350364 0.35089,4.209047 h 46.29795 l 9.11934,-12.62662 11.57448,-12.276254 17.18655,-7.014557 10.17147,1.052132 -3.15691,19.641695 -0.94465,11.574486 h 3.91191 l 4.39818,-20.342944 9.11934,-22.096841 4.55993,-10.171991 z" />
    <path
       style="fill:none;stroke:#000000;stroke-width:0.264583px;stroke-linecap:butt;stroke-linejoin:miter;stroke-opacity:1"
       d="m -588.55158,181.59545 h 3.85818 l 0.94949,-21.15097 2.36752,-4.73503 4.82272,-0.52612 4.12123,3.7705 5.92373,15.96246 7.10255,6.75179 20.73274,-0.004 15.65578,-0.76533 1.48443,-1.79262 -0.22308,-2.84484 -14.67771,-8.14853 -8.65446,2.00795 -12.91473,-3.44983 -5.36364,-10.84018 -7.58558,-9.0814 -7.63005,-7.24401 -7.42214,-3.45758 -4.22289,-3.93233 -2.63574,3.93963 -2.51172,7.03249 0.94584,12.77568 4.02108,13.70026 z"
       id="path838"
       sodipodi:nodetypes="ccccccccccccccccccccccccc" />
    <path
       style="color:#000000;font-style:normal;font-variant:normal;font-weight:normal;font-stretch:normal;font-size:medium;line-height:normal;font-family:sans-serif;font-variant-ligatures:normal;font-variant-position:normal;font-variant-caps:normal;font-variant-numeric:normal;font-variant-alternates:normal;font-variant-east-asian:normal;font-feature-settings:normal;font-variation-settings:normal;text-indent:0;text-align:start;text-decoration:none;text-decoration-line:none;text-decoration-style:solid;text-decoration-color:#000000;letter-spacing:normal;word-spacing:normal;text-transform:none;writing-mode:lr-tb;direction:ltr;text-orientation:mixed;dominant-baseline:auto;baseline-shift:baseline;text-anchor:start;white-space:normal;shape-padding:0;shape-margin:0;inline-size:0;clip-rule:nonzero;display:inline;overflow:visible;visibility:visible;opacity:1;isolation:auto;mix-blend-mode:normal;color-interpolation:sRGB;color-interpolation-filters:linearRGB;solid-color:#000000;solid-opacity:1;vector-effect:none;fill:#4d4d4d;fill-opacity:1;fill-rule:nonzero;stroke:none;stroke-linecap:butt;stroke-linejoin:miter;stroke-miterlimit:4;stroke-dasharray:none;stroke-dashoffset:0;stroke-opacity:1;color-rendering:auto;image-rendering:auto;shape-rendering:auto;text-rendering:auto;enable-background:accumulate;stop-color:#000000;stop-opacity:1"
       d="m 40.819629,9.7828946 -3.242188,3.1249994 -0.0059,0.0078 C 31.96196,18.93464 28.800715,25.765426 23.72002,31.021175 c -2.223287,1.918308 -5.722922,1.950788 -7.539063,2.103516 l -0.02344,0.002 -0.02149,0.0059 c -2.851162,0.570233 -5.496945,1.723964 -8.1503905,2.695313 l -0.00977,0.0039 -0.00781,0.0039 c -0.9035513,0.38293 -1.6295493,0.702187 -2.0839844,1.126953 -0.2272175,0.212382 -0.4113939,0.501851 -0.3808594,0.83789 0.030534,0.33604 0.2497191,0.600028 0.5488282,0.826172 1.2865802,0.972732 3.2611132,1.380268 5.4062501,1.615235 2.145136,0.234966 4.467807,0.277177 6.412109,0.40039 3.348463,0.212198 7.400501,0.930868 10.185547,-0.460937 l 0.002,-0.002 0.0039,-0.002 c 1.815272,-0.941602 2.756273,-2.733715 3.634766,-4.367187 1.302383,-2.421655 2.697972,-5.705487 3.75,-7.146485 0.711064,-0.901002 1.85056,-2.003602 2.919922,-2.609374 0.535811,-0.303526 1.049748,-0.476442 1.455078,-0.476563 0.388459,-1.16e-4 0.671935,0.143769 0.939453,0.503906 0.372672,1.300819 0.520656,2.519626 0.546875,3.882813 v 0.002 0.002 c 0.107169,3.321575 0.298925,7.342352 0.263672,10.335938 l -0.0039,0.412109 1.833984,-0.04687 -0.0039,-0.390625 c -0.05185,-4.960242 -0.156419,-11.186711 0.724609,-14.664063 l 0.002,-0.0039 v -0.0039 c 0.387555,-1.644551 1.045976,-3.529042 1.173828,-6.41211 l 0.002,-0.01758 -0.002,-0.01758 c -0.189275,-4.51672 -1.511842,-6.170573 -4.203214,-9.080167 z m -0.05469,1.1562494 c 2.436312,2.647262 3.560188,4.061918 3.738282,8.236328 -0.125017,2.764649 -0.749135,4.543379 -1.150391,6.244141 -0.91554,3.613563 -0.802044,9.586596 -0.748047,14.476562 l -0.248047,0.0059 c 0.01738,-2.985964 -0.15127,-6.774138 -0.253906,-9.953125 v -0.0059 c -0.02802,-1.439019 -0.179555,-2.766153 -0.595703,-4.179687 l -0.01758,-0.06055 -0.03711,-0.05273 c -0.406535,-0.58375 -1.01452,-0.865419 -1.630859,-0.865235 -0.616339,1.85e-4 -1.239873,0.235781 -1.847656,0.580078 -1.215566,0.688594 -2.387649,1.83898 -3.15625,2.814454 l -0.0039,0.0039 -0.0039,0.0059 c -1.187574,1.623966 -2.540205,4.880386 -3.8125,7.246094 -0.878051,1.63265 -1.754909,3.232843 -3.296875,4.035156 -2.395302,1.197034 -6.367719,0.595104 -9.779297,0.378906 -1.972364,-0.125027 -4.283674,-0.167233 -6.376962,-0.39652 C 9.4509506,39.223529 7.5800831,38.787329 6.5305664,37.993832 6.3229194,37.836838 6.2954038,37.741034 6.2942382,37.728207 c -0.00117,-0.01283 -3.418e-4,-0.06109 0.1328126,-0.185547 0.263865,-0.246638 0.9560878,-0.596492 1.8320312,-0.96875 l 0.00977,-0.0039 c 0.0037,-0.0016 0.00411,-0.0023 0.00781,-0.0039 2.620537,-0.960079 5.173988,-2.04832 7.845703,-2.607422 0.383503,0.580524 0.902647,1.109843 1.597657,1.595704 l 0.0098,0.0059 0.0078,0.0059 c 2.132979,1.32068 3.802742,1.31468 6.007812,0.646485 l 0.03906,-0.01172 0.03711,-0.01953 c 2.328231,-1.272152 4.78464,-4.967376 7.375,-9.212891 2.59036,-4.245515 5.25219,-9.045346 7.671875,-12.449219 l -0.646484,-0.458984 c -2.464337,3.466686 -5.125544,8.271523 -7.703125,12.496094 -2.568398,4.209519 -5.113763,7.827854 -7.054688,8.904297 -2.074219,0.621943 -3.33657,0.645579 -5.298828,-0.566407 -0.523204,-0.366831 -0.792607,-0.715164 -1.095703,-1.064453 1.9002,-0.120424 4.936726,-0.270019 7.181641,-2.216797 l 0.01367,-0.01172 0.01172,-0.01172 c 5.212111,-5.384767 8.363291,-12.218276 13.873047,-18.13086 6.4e-4,-6.86e-4 0.0013,-0.0013 0.002,-0.002 z"
       id="path940" />
  </g>
</svg>
